<svg xmlns:xlink="http://www.w3.org/1999/xlink" xmlns="http://www.w3.org/2000/svg" fill="currentColor" fill-rule="evenodd" height="128" viewBox="0 0 24 24" width="128" fit="" preserveAspectRatio="xMidYMid meet" focusable="false"><g transform="translate(1 1)" fill-opacity="0.99" fill="#000000"><path d="M22 12.77l-2.993 1.497v1.497zm-2.993-6.524v1.497L22 9.24z" fill-opacity="0.99"></path><path d="M15.64 19.125l6.353-6.355v4.233l-4.238 4.24zm0-16.247L22 9.24V5L17.758.758z" fill-opacity="0.99"></path><path d="M22 9.24l-2.993-1.497v6.524L22 12.77z" opacity=".8" fill-opacity="0.99"></path><path d="M0 9.23l2.993-1.497V6.236zm2.993 6.524v-1.497L0 12.76z" fill-opacity="0.99"></path><path d="M6.36 2.875L.008 9.23V4.997L4.245.757zm0 16.247L0 12.76V17l4.242 4.242z" fill-opacity="0.99"></path><circle cx="6.501" cy="10.998" r="1.504" fill-opacity="0.99"></circle><circle cx="10.999" cy="10.998" r="1.504" fill-opacity="0.99"></circle><circle cx="15.497" cy="10.998" r="1.504" fill-opacity="0.99"></circle><path d="M0 12.76l2.993 1.497V7.733L0 9.23z" opacity=".8" fill-opacity="0.99"></path></g></svg>